<svg width="35" height="15" viewBox="0 0 35 15" fill="none" xmlns="http://www.w3.org/2000/svg">
<path fill-rule="evenodd" clip-rule="evenodd" d="M2.30657 1.31801C3.4079 0.688681 4.8111 0.260101 6.3387 0.0864684C7.86631 -0.0871643 9.44972 0.00194865 10.8887 0.342539C12.3277 0.683128 13.5576 1.2599 14.4229 1.99991C15.2882 2.73992 15.7501 3.60994 15.75 4.49994C15.75 13.6257 5.33406 14.9197 4.90006 14.9697C4.56224 15.0091 4.21414 15.0101 3.87565 14.9726C3.53715 14.9351 3.21489 14.8599 2.92726 14.7513C2.34637 14.5319 1.94181 14.1896 1.80257 13.7997C1.66333 13.4099 1.80082 13.0044 2.1848 12.6724C2.56878 12.3405 3.1678 12.1093 3.85006 12.0298C4.869 11.8303 5.80869 11.5174 6.61487 11.1093C7.42105 10.7011 8.07775 10.2058 8.54705 9.65182C8.61141 9.58494 8.64422 9.50965 8.64224 9.43333C8.64027 9.35701 8.60359 9.2823 8.53581 9.21654C8.46802 9.15077 8.37147 9.09621 8.25562 9.05822C8.13978 9.02023 8.00863 9.00011 7.87506 8.99984C6.31752 8.99984 4.79496 8.73593 3.49991 8.24148C2.20487 7.74703 1.1955 7.04423 0.599455 6.22198C0.00341028 5.39973 -0.152541 4.49494 0.151323 3.62204C0.455187 2.74914 1.20522 1.94733 2.30657 1.31801ZM21.5565 1.31801C22.6579 0.688681 24.0611 0.260101 25.5887 0.0864684C27.1163 -0.0871643 28.6997 0.00194865 30.1387 0.342539C31.5776 0.683128 32.8075 1.2599 33.6728 1.99991C34.5382 2.73992 35 3.60994 35 4.49994C35 13.6257 24.584 14.9197 24.15 14.9697C23.8122 15.0091 23.4641 15.0101 23.1256 14.9726C22.7871 14.9351 22.4649 14.8599 22.1772 14.7513C21.5963 14.5319 21.1918 14.1896 21.0525 13.7997C20.9133 13.4099 21.0508 13.0044 21.4348 12.6724C21.8187 12.3405 22.4178 12.1093 23.1 12.0298C24.119 11.8303 25.0587 11.5174 25.8648 11.1093C26.671 10.7011 27.3277 10.2058 27.797 9.65182C27.8614 9.58494 27.8942 9.50965 27.8922 9.43333C27.8902 9.35701 27.8536 9.2823 27.7858 9.21654C27.718 9.15077 27.6214 9.09621 27.5056 9.05822C27.3897 9.02023 27.2586 9.00011 27.125 8.99984C25.5675 8.99984 24.0449 8.73593 22.7499 8.24148C21.4548 7.74703 20.4455 7.04423 19.8494 6.22198C19.2534 5.39973 19.0974 4.49494 19.4013 3.62204C19.7051 2.74914 20.4552 1.94733 21.5565 1.31801Z" fill="#FCFFFF"/>
</svg>
