<svg width="56" height="13" viewBox="0 0 56 13" fill="none" xmlns="http://www.w3.org/2000/svg">
<path d="M1.87911 8.86128C1.89184 8.59399 1.8982 8.30974 1.8982 8.00851V2.10277C1.8982 1.99671 1.89396 1.89701 1.88547 1.80367C1.88123 1.70609 1.87063 1.61487 1.85366 1.53002C1.77305 1.51729 1.68607 1.50669 1.59273 1.4982C1.50364 1.48547 1.40818 1.47911 1.30636 1.47911H0.733602V0.842715C1.03483 0.774833 1.36575 0.719679 1.72638 0.677252C2.09124 0.634826 2.4752 0.613613 2.87825 0.613613C3.0225 0.613613 3.14553 0.617856 3.24736 0.626341C3.34918 0.630583 3.43828 0.643311 3.51464 0.664524C3.59101 0.685738 3.65677 0.715436 3.71193 0.75362C3.76708 0.791803 3.82011 0.840593 3.87102 0.89999V8.53672C3.87102 8.72764 3.87739 8.88886 3.89012 9.02038C3.90709 9.14766 3.92618 9.25584 3.94739 9.34494H4.97199V9.98133C4.66652 10.0535 4.34832 10.1065 4.01739 10.1404C3.68647 10.1744 3.33433 10.1913 2.96098 10.1913C2.6937 10.1913 2.46035 10.1532 2.26095 10.0768C2.06579 9.99618 1.93214 9.84769 1.86002 9.63131C1.86002 9.50828 1.86214 9.38736 1.86638 9.26857C1.87487 9.14978 1.87911 9.01401 1.87911 8.86128ZM7.91849 6.90755C7.91849 7.75183 8.03728 8.3755 8.27487 8.77855C8.5167 9.1816 8.89217 9.38312 9.40129 9.38312C9.93586 9.38312 10.3156 9.17523 10.5404 8.75945C10.7653 8.34368 10.8777 7.72638 10.8777 6.90755C10.8777 6.07599 10.7589 5.45657 10.5213 5.04928C10.2838 4.64199 9.9104 4.43834 9.40129 4.43834C8.8752 4.43834 8.49549 4.64623 8.26214 5.06201C8.03304 5.47354 7.91849 6.08872 7.91849 6.90755ZM12.9651 6.91391C12.9651 7.48242 12.8675 7.97669 12.6724 8.39671C12.4772 8.81673 12.2141 9.16675 11.8832 9.44676C11.5565 9.72253 11.1789 9.9283 10.7504 10.0641C10.3219 10.1998 9.87434 10.2677 9.40765 10.2677C8.89429 10.2677 8.41912 10.1935 7.98213 10.045C7.54514 9.89224 7.16754 9.67162 6.84935 9.38312C6.53115 9.09462 6.28296 8.74461 6.10477 8.33307C5.92658 7.91729 5.83748 7.44424 5.83748 6.91391C5.83748 6.35389 5.93294 5.86386 6.12386 5.44384C6.31902 5.02382 6.57994 4.67168 6.90662 4.38743C7.23755 4.10317 7.61726 3.89104 8.04577 3.75103C8.47852 3.60679 8.93248 3.53466 9.40765 3.53466C9.92101 3.53466 10.3941 3.61315 10.8268 3.77013C11.2638 3.92286 11.6393 4.1456 11.9532 4.43834C12.2714 4.72684 12.5196 5.0811 12.6978 5.50112C12.876 5.9169 12.9651 6.38783 12.9651 6.91391ZM18.1772 5.94023C18.1772 5.42263 18.0838 5.03231 17.8971 4.76927C17.7147 4.50622 17.4517 4.3747 17.108 4.3747C16.7347 4.3747 16.4653 4.5041 16.2998 4.7629C16.1343 5.01746 16.0516 5.4099 16.0516 5.94023C16.0516 6.19054 16.0771 6.40692 16.128 6.58935C16.1789 6.76754 16.2489 6.91391 16.338 7.02846C16.4313 7.14301 16.5416 7.22787 16.6689 7.28302C16.8004 7.33818 16.9447 7.36575 17.1017 7.36575C17.2629 7.36575 17.4092 7.33818 17.5408 7.28302C17.6765 7.22787 17.7911 7.14301 17.8844 7.02846C17.9778 6.90967 18.0499 6.76118 18.1008 6.58299C18.1517 6.4048 18.1772 6.19054 18.1772 5.94023ZM18.9281 11.1141C18.9281 10.9359 18.9048 10.7832 18.8581 10.6559C18.8157 10.5286 18.7351 10.4226 18.6163 10.3377C18.5017 10.2571 18.3405 10.1977 18.1326 10.1595C17.929 10.1213 17.6659 10.1022 17.3435 10.1022C17.2289 10.1022 17.1101 10.1044 16.9871 10.1086C16.8683 10.1086 16.7538 10.1107 16.6434 10.115C16.5374 10.1192 16.4398 10.1213 16.3507 10.1213C16.2659 10.1256 16.2001 10.1277 16.1534 10.1277C16.1152 10.1659 16.0643 10.2232 16.0007 10.2995C15.9413 10.3759 15.8819 10.4607 15.8225 10.5541C15.7631 10.6474 15.7122 10.7429 15.6698 10.8405C15.6273 10.9423 15.6061 11.0335 15.6061 11.1141C15.6061 11.2499 15.6295 11.3772 15.6761 11.4959C15.7228 11.619 15.8034 11.7251 15.918 11.8141C16.0325 11.9075 16.1852 11.9796 16.3762 12.0305C16.5671 12.0857 16.8068 12.1133 17.0953 12.1133C17.4474 12.1133 17.7402 12.0878 17.9735 12.0369C18.2111 11.9902 18.3999 11.9223 18.5399 11.8332C18.6799 11.7484 18.7796 11.6444 18.839 11.5214C18.8984 11.3984 18.9281 11.2626 18.9281 11.1141ZM18.5654 3.8274L20.5 3.65558C20.5594 3.69376 20.6039 3.74043 20.6336 3.79558C20.6676 3.84649 20.6909 3.91013 20.7036 3.9865C20.7206 4.05863 20.7291 4.1456 20.7291 4.24742C20.7333 4.345 20.7355 4.45955 20.7355 4.59107C20.5106 4.59107 20.2857 4.5932 20.0609 4.59744C19.8403 4.59744 19.6154 4.59744 19.3863 4.59744C19.573 4.82654 19.7087 5.04504 19.7936 5.25292C19.8827 5.45657 19.9272 5.67931 19.9272 5.92114C19.9272 6.26055 19.8678 6.57026 19.7491 6.85027C19.6345 7.12604 19.4542 7.36363 19.2081 7.56303C18.962 7.7582 18.6502 7.90881 18.2726 8.01487C17.8993 8.12094 17.4538 8.17397 16.9362 8.17397C16.8429 8.17397 16.7474 8.17185 16.6498 8.16761C16.5522 8.15912 16.4568 8.15064 16.3634 8.14215C16.2743 8.13367 16.1916 8.12518 16.1152 8.1167C16.0389 8.10397 15.9795 8.09336 15.9371 8.08488C15.9201 8.11033 15.8925 8.17397 15.8543 8.2758C15.8204 8.37338 15.8034 8.48368 15.8034 8.60672C15.8034 8.68733 15.8161 8.75309 15.8416 8.804C15.867 8.85491 15.9158 8.89734 15.988 8.93128C16.0643 8.96098 16.1704 8.98219 16.3062 8.99492C16.4419 9.00765 16.6201 9.01401 16.8407 9.01401C17.1462 9.01401 17.4495 9.01826 17.7508 9.02674C18.052 9.03098 18.3384 9.05007 18.6099 9.08402C18.8814 9.11796 19.1339 9.17311 19.3672 9.24948C19.6006 9.3216 19.8021 9.42555 19.9718 9.56131C20.1415 9.69708 20.273 9.8689 20.3664 10.0768C20.4639 10.2804 20.5127 10.5329 20.5127 10.8341C20.5127 11.2244 20.43 11.5553 20.2645 11.8269C20.0991 12.0984 19.8594 12.3211 19.5454 12.4951C19.2357 12.669 18.8581 12.7942 18.4126 12.8706C17.9671 12.9512 17.4665 12.9915 16.9107 12.9915C16.4059 12.9915 15.971 12.949 15.6061 12.8642C15.2413 12.7836 14.94 12.669 14.7024 12.5205C14.4691 12.3721 14.2952 12.1939 14.1806 11.986C14.0703 11.7781 14.0151 11.5469 14.0151 11.2923C14.0151 10.9826 14.1191 10.7174 14.327 10.4968C14.5349 10.2762 14.8615 10.098 15.307 9.96224C15.0949 9.89436 14.9316 9.77344 14.817 9.59949C14.7067 9.42555 14.6515 9.23251 14.6515 9.02038C14.6515 8.73188 14.7109 8.48368 14.8297 8.2758C14.9528 8.06791 15.1373 7.91093 15.3834 7.80486C15.0143 7.62243 14.7364 7.36787 14.5497 7.04119C14.363 6.71027 14.2697 6.32631 14.2697 5.88932C14.2697 5.51597 14.3376 5.18504 14.4733 4.89654C14.6134 4.60805 14.8085 4.36622 15.0588 4.17105C15.3134 3.97589 15.6167 3.8274 15.9689 3.72558C16.3253 3.62376 16.7177 3.57284 17.1462 3.57284C17.405 3.57284 17.6532 3.59618 17.8908 3.64285C18.1326 3.68952 18.3575 3.75103 18.5654 3.8274ZM25.2093 9.33857L25.2793 9.98133C24.6726 10.1256 24.0193 10.1977 23.3192 10.1977C23.1622 10.1977 23.0159 10.1871 22.8801 10.1659C22.7486 10.1447 22.6319 10.1107 22.5301 10.0641C22.4325 10.0174 22.354 9.95588 22.2946 9.87951C22.2395 9.7989 22.2119 9.70132 22.2119 9.58677C22.2119 9.50616 22.214 9.41282 22.2183 9.30675C22.2225 9.20069 22.2267 9.0925 22.231 8.98219C22.2395 8.87188 22.2458 8.76158 22.2501 8.65127C22.2543 8.53672 22.2564 8.42853 22.2564 8.32671V5.02382C22.2564 4.94746 22.2543 4.86897 22.2501 4.78836C22.2458 4.70775 22.2395 4.63138 22.231 4.55926C22.1631 4.53804 22.091 4.52531 22.0146 4.52107C21.9382 4.51259 21.8576 4.50834 21.7728 4.50834H21.1046V3.80195C21.2318 3.77649 21.3825 3.75103 21.5564 3.72558C21.7346 3.70012 21.9192 3.67891 22.1101 3.66194C22.301 3.64497 22.494 3.63224 22.6892 3.62376C22.8844 3.61103 23.0647 3.60466 23.2301 3.60466C23.4295 3.60466 23.6056 3.61739 23.7583 3.64285C23.9153 3.66406 24.0617 3.7277 24.1974 3.83377C24.2102 3.89316 24.2208 3.95468 24.2293 4.01832C24.2378 4.08196 24.242 4.1456 24.242 4.20924V8.30125C24.242 8.51763 24.2484 8.71279 24.2611 8.88673C24.2781 9.06068 24.2993 9.21129 24.3247 9.33857H25.2093ZM22.0592 1.62548C22.0592 1.47274 22.0889 1.3391 22.1483 1.22455C22.2119 1.10576 22.2967 1.00818 22.4028 0.93181C22.5131 0.8512 22.6383 0.791803 22.7783 0.75362C22.9225 0.711193 23.0753 0.68998 23.2365 0.68998C23.402 0.68998 23.5568 0.711193 23.7011 0.75362C23.8453 0.796046 23.9705 0.857564 24.0765 0.938174C24.1826 1.01878 24.2653 1.11849 24.3247 1.23728C24.3884 1.35183 24.4202 1.48123 24.4202 1.62548C24.4202 1.77821 24.3862 1.91398 24.3184 2.03277C24.2547 2.14732 24.1677 2.24278 24.0574 2.31915C23.9514 2.39552 23.8262 2.45491 23.682 2.49734C23.5377 2.53552 23.3892 2.55461 23.2365 2.55461C23.071 2.55461 22.9162 2.5334 22.7719 2.49097C22.6319 2.44855 22.5089 2.38703 22.4028 2.30642C22.2967 2.22581 22.2119 2.12823 22.1483 2.01368C22.0889 1.89913 22.0592 1.76973 22.0592 1.62548ZM26.9339 3.70649L27.093 2.61825C27.11 2.51643 27.1376 2.40824 27.1758 2.29369C27.214 2.1749 27.2564 2.06035 27.303 1.95004L27.3985 1.70821H28.8431V3.70649H30.8032V4.03741C30.8032 4.15196 30.7862 4.24318 30.7523 4.31106C30.7184 4.37894 30.6717 4.42986 30.6123 4.4638C30.5529 4.49774 30.4808 4.52107 30.3959 4.5338C30.3153 4.54228 30.2262 4.54653 30.1286 4.54653C30.0735 4.54653 30.0162 4.54653 29.9568 4.54653C29.8974 4.54228 29.838 4.54016 29.7786 4.54016H28.8431V8.05942C28.8431 8.49217 28.8919 8.80825 28.9895 9.00765C29.0871 9.20705 29.2631 9.30675 29.5177 9.30675C29.6026 9.30675 29.681 9.2919 29.7532 9.26221C29.8295 9.22827 29.8974 9.18796 29.9568 9.14129C30.0162 9.09462 30.065 9.04583 30.1032 8.99492C30.1414 8.93977 30.1647 8.8931 30.1732 8.85491C30.1774 8.84219 30.1838 8.81037 30.1923 8.75945C30.2008 8.7043 30.2092 8.64066 30.2177 8.56854C30.2305 8.49217 30.2432 8.41156 30.2559 8.32671C30.2686 8.23761 30.2793 8.15488 30.2877 8.07851H31.4396V9.67586C31.1384 9.86254 30.7947 10.0004 30.4087 10.0895C30.0226 10.1786 29.5941 10.2232 29.1231 10.2232C28.4019 10.2232 27.844 10.0598 27.4494 9.73314C27.0549 9.40221 26.8576 8.88249 26.8576 8.17397V4.54016H25.623V4.13924C25.623 4.02893 25.6548 3.95256 25.7184 3.91013C25.7863 3.86346 25.8775 3.82952 25.9921 3.80831C26.1448 3.78285 26.3018 3.76376 26.463 3.75103C26.6242 3.73831 26.7812 3.72346 26.9339 3.70649ZM38.2617 8.69582L38.599 9.2813C38.3063 9.62071 37.9414 9.87102 37.5044 10.0322C37.0717 10.1892 36.5647 10.2677 35.9835 10.2677C35.4362 10.2677 34.9398 10.1935 34.4943 10.045C34.0531 9.89224 33.6755 9.67374 33.3615 9.38948C33.0518 9.10099 32.8121 8.74673 32.6424 8.32671C32.4727 7.90669 32.3878 7.42515 32.3878 6.88209C32.3878 6.37722 32.4727 5.91902 32.6424 5.50748C32.8121 5.09595 33.0518 4.74593 33.3615 4.45743C33.6755 4.16469 34.0531 3.93983 34.4943 3.78285C34.9355 3.62163 35.4298 3.54102 35.9771 3.54102C36.3844 3.54102 36.762 3.5983 37.1099 3.71285C37.4578 3.8274 37.759 3.99286 38.0136 4.20924C38.2681 4.42561 38.4654 4.69078 38.6054 5.00473C38.7497 5.31444 38.8218 5.66658 38.8218 6.06114C38.8218 6.29873 38.7984 6.48965 38.7518 6.6339C38.7051 6.77815 38.633 6.89058 38.5354 6.97119C38.4378 7.04756 38.3127 7.09847 38.1599 7.12392C38.0072 7.14938 37.8269 7.16211 37.619 7.16211H34.4179C34.4901 7.84517 34.6979 8.36701 35.0416 8.72764C35.3895 9.08826 35.8668 9.26857 36.4735 9.26857C36.779 9.26857 37.0802 9.22402 37.3772 9.13493C37.6741 9.04159 37.969 8.89522 38.2617 8.69582ZM34.4116 6.32207H36.9126C36.9168 6.30085 36.919 6.28176 36.919 6.26479C36.919 6.24782 36.919 6.22873 36.919 6.20752C36.919 5.9572 36.8956 5.72173 36.849 5.50112C36.8065 5.2805 36.7365 5.08958 36.6389 4.92836C36.5456 4.7629 36.4247 4.6335 36.2762 4.54016C36.1277 4.44258 35.9495 4.39379 35.7416 4.39379C35.3343 4.39379 35.0225 4.55713 34.8061 4.88382C34.5898 5.20626 34.4582 5.68567 34.4116 6.32207ZM46.0639 8.70218L46.1658 9.62495C45.8433 9.84132 45.4721 10.0025 45.0521 10.1086C44.6363 10.2147 44.1845 10.2677 43.6966 10.2677C43.1662 10.2677 42.6804 10.1956 42.2392 10.0513C41.798 9.90284 41.4183 9.68859 41.1001 9.40858C40.7861 9.12432 40.54 8.77855 40.3619 8.37125C40.1879 7.95972 40.1009 7.49091 40.1009 6.96482C40.1009 6.39207 40.1985 5.89144 40.3937 5.46293C40.5931 5.03443 40.8604 4.67805 41.1955 4.39379C41.5307 4.10954 41.921 3.89741 42.3665 3.7574C42.8162 3.61315 43.2914 3.54102 43.792 3.54102C44.2842 3.54102 44.7339 3.60254 45.1412 3.72558C45.5527 3.84862 45.8985 4.02681 46.1785 4.26015L46.0703 5.53294H45.0012C44.806 5.14686 44.6024 4.86685 44.3902 4.6929C44.1823 4.51895 43.9405 4.43198 43.6647 4.43198C43.4399 4.43198 43.2341 4.48501 43.0474 4.59107C42.8608 4.6929 42.6974 4.84139 42.5574 5.03655C42.4216 5.23171 42.3156 5.4693 42.2392 5.74931C42.1628 6.02933 42.1247 6.34328 42.1247 6.69117C42.1247 7.13665 42.1671 7.52697 42.2519 7.86214C42.3368 8.19306 42.4556 8.46884 42.6083 8.68945C42.7611 8.90583 42.9414 9.06917 43.1493 9.17947C43.3614 9.28554 43.5947 9.33857 43.8493 9.33857C44.0657 9.33857 44.2693 9.32585 44.4602 9.30039C44.6554 9.27493 44.8421 9.23675 45.0203 9.18584C45.2027 9.13068 45.3788 9.0628 45.5485 8.98219C45.7182 8.90158 45.89 8.80825 46.0639 8.70218ZM55.3171 9.33857L55.3553 10.0132C55.0541 10.0853 54.7359 10.1383 54.4007 10.1722C54.0655 10.2104 53.7325 10.2295 53.4016 10.2295C53.2361 10.2295 53.0855 10.2189 52.9497 10.1977C52.814 10.1765 52.6973 10.1426 52.5997 10.0959C52.5021 10.0492 52.4258 9.9877 52.3706 9.91133C52.3197 9.83072 52.2942 9.73314 52.2942 9.61859C52.2942 9.45312 52.2964 9.26857 52.3006 9.06492C52.3048 8.86128 52.3091 8.64703 52.3133 8.42217C52.3176 8.19306 52.3218 7.95972 52.3261 7.72213C52.3303 7.48455 52.3324 7.2512 52.3324 7.0221V6.88209C52.3324 6.5639 52.3282 6.26267 52.3197 5.97841C52.3112 5.68992 52.2815 5.4396 52.2306 5.22747C52.1797 5.01109 52.0991 4.83927 51.9888 4.71199C51.8827 4.58471 51.73 4.52107 51.5306 4.52107C51.3736 4.52107 51.2187 4.54653 51.066 4.59744C50.9175 4.64411 50.7775 4.70775 50.646 4.78836C50.5145 4.86897 50.3978 4.9623 50.296 5.06837C50.1984 5.17444 50.122 5.28262 50.0669 5.39293V8.45399C50.0669 8.64066 50.069 8.79552 50.0732 8.91855C50.0817 9.03735 50.1072 9.13493 50.1496 9.21129C50.192 9.28766 50.2599 9.34706 50.3532 9.38948C50.4466 9.43191 50.5781 9.46797 50.7478 9.49767L50.8051 10.1977L50.5569 10.185C50.1835 10.1638 49.8696 10.1468 49.615 10.1341C49.3605 10.1256 49.1483 10.1213 48.9786 10.1213C48.6986 10.1213 48.4207 10.1277 48.1449 10.1404C47.8692 10.1532 47.5849 10.1722 47.2922 10.1977L47.324 9.50404C47.5022 9.47858 47.6401 9.451 47.7377 9.4213C47.8395 9.38736 47.9137 9.33857 47.9604 9.27493C48.0113 9.21129 48.0431 9.12432 48.0559 9.01401C48.0686 8.9037 48.0749 8.75945 48.0749 8.58126V2.02004C48.0749 1.92671 48.0728 1.83973 48.0686 1.75912C48.0643 1.67851 48.0537 1.60214 48.0368 1.53002C47.9562 1.51729 47.8713 1.50669 47.7822 1.4982C47.6931 1.48972 47.5977 1.48547 47.4958 1.48547H46.9167V0.849079C47.2604 0.764226 47.638 0.704829 48.0495 0.670888C48.4653 0.632705 48.9065 0.613613 49.3732 0.613613C49.5302 0.613613 49.6532 0.622098 49.7423 0.639069C49.8356 0.656039 49.9056 0.687859 49.9523 0.734528C50.0032 0.781197 50.035 0.849079 50.0478 0.938174C50.0605 1.02303 50.0669 1.13546 50.0669 1.27546V4.38743C50.3851 4.12439 50.7478 3.91862 51.1551 3.77013C51.5666 3.61739 51.9888 3.54102 52.4215 3.54102C53.0791 3.54102 53.5585 3.72558 53.8598 4.09469C54.1652 4.45955 54.318 4.98988 54.318 5.68567V8.47308C54.318 8.664 54.3265 8.83158 54.3434 8.97583C54.3604 9.11584 54.3795 9.23675 54.4007 9.33857H55.3171Z" fill="black"/>
</svg>
