<svg width="35" height="27" viewBox="0 0 35 27" fill="none" xmlns="http://www.w3.org/2000/svg">
<rect x="0.356689" y="0.113037" width="33.8867" height="26.5567" fill="#06FFE2"/>
<path d="M8.43092 15.105C8.4411 14.8912 8.4462 14.6638 8.4462 14.4228V9.69819C8.4462 9.61333 8.4428 9.53357 8.43601 9.4589C8.43262 9.38084 8.42413 9.30786 8.41056 9.23998C8.34607 9.2298 8.27649 9.22131 8.20182 9.21453C8.13054 9.20434 8.05418 9.19925 7.97272 9.19925H7.51452V8.69014C7.7555 8.63583 8.02024 8.59171 8.30873 8.55777C8.60063 8.52383 8.90779 8.50686 9.23023 8.50686C9.34563 8.50686 9.44406 8.51025 9.52552 8.51704C9.60698 8.52043 9.67825 8.53061 9.73935 8.54759C9.80044 8.56456 9.85305 8.58831 9.89717 8.61886C9.9413 8.64941 9.98372 8.68844 10.0245 8.73596V14.8453C10.0245 14.9981 10.0295 15.1271 10.0397 15.2323C10.0533 15.3341 10.0686 15.4206 10.0855 15.4919H10.9052V16.001C10.6608 16.0587 10.4063 16.1012 10.1415 16.1283C9.87681 16.1555 9.5951 16.169 9.29642 16.169C9.08259 16.169 8.89591 16.1385 8.73639 16.0774C8.58026 16.0129 8.47335 15.8941 8.41565 15.721C8.41565 15.6226 8.41735 15.5259 8.42074 15.4308C8.42753 15.3358 8.43092 15.2272 8.43092 15.105ZM13.2624 13.542C13.2624 14.2174 13.3575 14.7164 13.5475 15.0388C13.741 15.3612 14.0414 15.5225 14.4487 15.5225C14.8763 15.5225 15.1801 15.3562 15.36 15.0235C15.5399 14.6909 15.6298 14.1971 15.6298 13.542C15.6298 12.8768 15.5348 12.3812 15.3447 12.0554C15.1546 11.7296 14.856 11.5666 14.4487 11.5666C14.0278 11.5666 13.724 11.7329 13.5373 12.0656C13.3541 12.3948 13.2624 12.8869 13.2624 13.542ZM17.2997 13.5471C17.2997 14.0019 17.2216 14.3973 17.0655 14.7333C16.9094 15.0694 16.699 15.3494 16.4342 15.5734C16.1729 15.794 15.8708 15.9586 15.528 16.0672C15.1852 16.1758 14.8271 16.2301 14.4538 16.2301C14.0431 16.2301 13.6629 16.1707 13.3133 16.0519C12.9637 15.9298 12.6617 15.7533 12.4071 15.5225C12.1526 15.2917 11.954 15.0117 11.8114 14.6824C11.6689 14.3498 11.5976 13.9714 11.5976 13.5471C11.5976 13.0991 11.674 12.7071 11.8267 12.371C11.9828 12.035 12.1916 11.7533 12.4529 11.5259C12.7177 11.2985 13.0214 11.1288 13.3642 11.0168C13.7104 10.9014 14.0736 10.8437 14.4538 10.8437C14.8644 10.8437 15.2429 10.9065 15.5891 11.0321C15.9387 11.1543 16.2391 11.3324 16.4902 11.5666C16.7448 11.7974 16.9433 12.0808 17.0859 12.4169C17.2284 12.7495 17.2997 13.1262 17.2997 13.5471ZM21.4694 12.7682C21.4694 12.3541 21.3947 12.0418 21.2454 11.8314C21.0994 11.6209 20.889 11.5157 20.614 11.5157C20.3154 11.5157 20.0998 11.6192 19.9675 11.8263C19.8351 12.0299 19.7689 12.3439 19.7689 12.7682C19.7689 12.9684 19.7893 13.1415 19.83 13.2874C19.8707 13.43 19.9267 13.5471 19.998 13.6387C20.0727 13.7304 20.1609 13.7983 20.2628 13.8424C20.368 13.8865 20.4834 13.9086 20.609 13.9086C20.7379 13.9086 20.855 13.8865 20.9602 13.8424C21.0689 13.7983 21.1605 13.7304 21.2352 13.6387C21.3098 13.5437 21.3675 13.4249 21.4083 13.2824C21.449 13.1398 21.4694 12.9684 21.4694 12.7682ZM22.0701 16.9073C22.0701 16.7647 22.0515 16.6425 22.0141 16.5407C21.9802 16.4389 21.9157 16.354 21.8207 16.2861C21.729 16.2216 21.6 16.1741 21.4337 16.1436C21.2708 16.113 21.0604 16.0978 20.8024 16.0978C20.7108 16.0978 20.6157 16.0995 20.5173 16.1029C20.4223 16.1029 20.3306 16.1046 20.2424 16.1079C20.1575 16.1113 20.0795 16.113 20.0082 16.113C19.9403 16.1164 19.8877 16.1181 19.8504 16.1181C19.8198 16.1487 19.7791 16.1945 19.7282 16.2556C19.6807 16.3167 19.6332 16.3846 19.5856 16.4592C19.5381 16.5339 19.4974 16.6103 19.4634 16.6883C19.4295 16.7698 19.4125 16.8428 19.4125 16.9073C19.4125 17.0159 19.4312 17.1177 19.4685 17.2127C19.5059 17.3112 19.5704 17.396 19.662 17.4673C19.7536 17.542 19.8758 17.5997 20.0286 17.6404C20.1813 17.6845 20.3731 17.7066 20.6039 17.7066C20.8856 17.7066 21.1198 17.6862 21.3064 17.6455C21.4965 17.6081 21.6476 17.5538 21.7596 17.4826C21.8716 17.4147 21.9513 17.3315 21.9988 17.2331C22.0464 17.1347 22.0701 17.0261 22.0701 16.9073ZM21.7799 11.0779L23.3276 10.9404C23.3752 10.971 23.4108 11.0083 23.4345 11.0524C23.4617 11.0932 23.4804 11.1441 23.4906 11.2052C23.5041 11.2629 23.5109 11.3324 23.5109 11.4139C23.5143 11.492 23.516 11.5836 23.516 11.6888C23.3361 11.6888 23.1562 11.6905 22.9763 11.6939C22.7999 11.6939 22.62 11.6939 22.4367 11.6939C22.586 11.8772 22.6946 12.052 22.7625 12.2183C22.8338 12.3812 22.8694 12.5594 22.8694 12.7529C22.8694 13.0244 22.8219 13.2722 22.7269 13.4962C22.6352 13.7168 22.491 13.9069 22.2941 14.0664C22.0973 14.2225 21.8478 14.343 21.5457 14.4279C21.247 14.5127 20.8907 14.5551 20.4766 14.5551C20.4019 14.5551 20.3256 14.5534 20.2475 14.5501C20.1694 14.5433 20.0931 14.5365 20.0184 14.5297C19.9471 14.5229 19.8809 14.5161 19.8198 14.5093C19.7587 14.4991 19.7112 14.4907 19.6773 14.4839C19.6637 14.5042 19.6416 14.5551 19.6111 14.6366C19.5839 14.7147 19.5704 14.8029 19.5704 14.9013C19.5704 14.9658 19.5805 15.0184 19.6009 15.0592C19.6213 15.0999 19.6603 15.1338 19.718 15.161C19.7791 15.1848 19.864 15.2017 19.9726 15.2119C20.0812 15.2221 20.2237 15.2272 20.4002 15.2272C20.6446 15.2272 20.8873 15.2306 21.1283 15.2374C21.3692 15.2408 21.5983 15.256 21.8156 15.2832C22.0328 15.3103 22.2347 15.3545 22.4214 15.4155C22.6081 15.4732 22.7693 15.5564 22.9051 15.665C23.0408 15.7736 23.146 15.9111 23.2207 16.0774C23.2988 16.2403 23.3378 16.4423 23.3378 16.6832C23.3378 16.9955 23.2716 17.2602 23.1393 17.4775C23.0069 17.6947 22.8151 17.8729 22.564 18.012C22.3162 18.1512 22.0141 18.2513 21.6577 18.3124C21.3014 18.3769 20.9009 18.4091 20.4562 18.4091C20.0523 18.4091 19.7044 18.3752 19.4125 18.3073C19.1206 18.2428 18.8797 18.1512 18.6896 18.0324C18.5029 17.9136 18.3638 17.7711 18.2721 17.6047C18.1839 17.4384 18.1397 17.2535 18.1397 17.0498C18.1397 16.802 18.2229 16.5899 18.3892 16.4134C18.5555 16.2369 18.8169 16.0944 19.1733 15.9858C19.0035 15.9315 18.8729 15.8347 18.7812 15.6956C18.693 15.5564 18.6489 15.402 18.6489 15.2323C18.6489 15.0015 18.6964 14.8029 18.7914 14.6366C18.8898 14.4703 19.0375 14.3447 19.2343 14.2599C18.9391 14.1139 18.7167 13.9103 18.5674 13.6489C18.4181 13.3842 18.3434 13.077 18.3434 12.7274C18.3434 12.4287 18.3977 12.164 18.5063 11.9332C18.6183 11.7024 18.7744 11.5089 18.9747 11.3528C19.1783 11.1967 19.421 11.0779 19.7027 10.9964C19.9878 10.915 20.3018 10.8742 20.6446 10.8742C20.8516 10.8742 21.0502 10.8929 21.2403 10.9302C21.4337 10.9676 21.6136 11.0168 21.7799 11.0779ZM27.0951 15.4868L27.1511 16.001C26.6657 16.1164 26.143 16.1741 25.583 16.1741C25.4574 16.1741 25.3403 16.1656 25.2317 16.1487C25.1265 16.1317 25.0332 16.1046 24.9517 16.0672C24.8736 16.0299 24.8109 15.9807 24.7633 15.9196C24.7192 15.8551 24.6972 15.777 24.6972 15.6854C24.6972 15.6209 24.6988 15.5462 24.7022 15.4614C24.7056 15.3765 24.709 15.29 24.7124 15.2017C24.7192 15.1135 24.7243 15.0252 24.7277 14.937C24.7311 14.8453 24.7328 14.7588 24.7328 14.6773V12.035C24.7328 11.9739 24.7311 11.9111 24.7277 11.8467C24.7243 11.7822 24.7192 11.7211 24.7124 11.6634C24.6581 11.6464 24.6004 11.6362 24.5393 11.6328C24.4782 11.626 24.4137 11.6226 24.3459 11.6226H23.8113V11.0575C23.9131 11.0372 24.0336 11.0168 24.1728 10.9964C24.3153 10.9761 24.463 10.9591 24.6157 10.9455C24.7684 10.9319 24.9229 10.9218 25.079 10.915C25.2351 10.9048 25.3794 10.8997 25.5117 10.8997C25.6713 10.8997 25.8121 10.9099 25.9343 10.9302C26.0599 10.9472 26.177 10.9981 26.2856 11.083C26.2958 11.1305 26.3043 11.1797 26.311 11.2306C26.3178 11.2815 26.3212 11.3324 26.3212 11.3834V14.657C26.3212 14.8301 26.3263 14.9862 26.3365 15.1254C26.3501 15.2645 26.3671 15.385 26.3874 15.4868H27.0951ZM24.575 9.31635C24.575 9.19416 24.5987 9.08725 24.6462 8.99561C24.6972 8.90057 24.765 8.82251 24.8499 8.76141C24.9381 8.69693 25.0383 8.64941 25.1503 8.61886C25.2657 8.58492 25.3879 8.56795 25.5168 8.56795C25.6492 8.56795 25.7731 8.58492 25.8885 8.61886C26.0039 8.6528 26.104 8.70202 26.1889 8.7665C26.2737 8.83099 26.3399 8.91075 26.3874 9.00579C26.4383 9.09743 26.4638 9.20095 26.4638 9.31635C26.4638 9.43854 26.4366 9.54715 26.3823 9.64218C26.3314 9.73382 26.2618 9.81019 26.1736 9.87128C26.0887 9.93238 25.9886 9.9799 25.8732 10.0138C25.7578 10.0444 25.639 10.0597 25.5168 10.0597C25.3845 10.0597 25.2606 10.0427 25.1452 10.0087C25.0332 9.9748 24.9347 9.92559 24.8499 9.8611C24.765 9.79661 24.6972 9.71855 24.6462 9.62691C24.5987 9.53527 24.575 9.43175 24.575 9.31635Z" fill="black"/>
</svg>
